<mxfile host="app.diagrams.net" modified="2020-10-13T22:36:02.716Z" agent="5.0 (Windows NT 10.0; Win64; x64) AppleWebKit/537.36 (KHTML, like Gecko) Chrome/85.0.4183.121 Safari/537.36" etag="T91HyKa_oCAQOHuaeL_0" version="13.7.9" type="github">
  <diagram name="Page-1" id="0783ab3e-0a74-02c8-0abd-f7b4e66b4bec">
    <mxGraphModel dx="677" dy="363" grid="1" gridSize="10" guides="1" tooltips="1" connect="1" arrows="1" fold="1" page="1" pageScale="1" pageWidth="850" pageHeight="1100" background="#ffffff" math="0" shadow="0">
      <root>
        <mxCell id="0" />
        <mxCell id="1" parent="0" />
        <mxCell id="1c1d494c118603dd-1" value="Pool" style="swimlane;html=1;childLayout=stackLayout;startSize=20;rounded=0;shadow=0;comic=0;labelBackgroundColor=none;strokeWidth=1;fontFamily=Verdana;fontSize=12;align=center;" parent="1" vertex="1">
          <mxGeometry x="40" y="20" width="750" height="990" as="geometry" />
        </mxCell>
        <mxCell id="1c1d494c118603dd-3" value="Employee" style="swimlane;html=1;startSize=20;" parent="1c1d494c118603dd-1" vertex="1">
          <mxGeometry y="20" width="230" height="970" as="geometry">
            <mxRectangle y="20" width="30" height="970" as="alternateBounds" />
          </mxGeometry>
        </mxCell>
        <mxCell id="Xv2vDg8jtysRzjBzoviw-3" style="edgeStyle=orthogonalEdgeStyle;rounded=0;orthogonalLoop=1;jettySize=auto;html=1;exitX=0;exitY=0.5;exitDx=0;exitDy=0;entryX=0;entryY=0.5;entryDx=0;entryDy=0;" edge="1" parent="1c1d494c118603dd-3" source="Xv2vDg8jtysRzjBzoviw-2" target="60571a20871a0731-8">
          <mxGeometry relative="1" as="geometry" />
        </mxCell>
        <mxCell id="Xv2vDg8jtysRzjBzoviw-5" value="Invalid Email" style="edgeLabel;html=1;align=center;verticalAlign=middle;resizable=0;points=[];" vertex="1" connectable="0" parent="Xv2vDg8jtysRzjBzoviw-3">
          <mxGeometry x="-0.3247" y="1" relative="1" as="geometry">
            <mxPoint as="offset" />
          </mxGeometry>
        </mxCell>
        <mxCell id="Xv2vDg8jtysRzjBzoviw-4" style="edgeStyle=orthogonalEdgeStyle;rounded=0;orthogonalLoop=1;jettySize=auto;html=1;exitX=0.5;exitY=1;exitDx=0;exitDy=0;entryX=0.5;entryY=0;entryDx=0;entryDy=0;" edge="1" parent="1c1d494c118603dd-3" source="Xv2vDg8jtysRzjBzoviw-2" target="1c1d494c118603dd-5">
          <mxGeometry relative="1" as="geometry" />
        </mxCell>
        <mxCell id="Xv2vDg8jtysRzjBzoviw-6" value="Valid Email" style="edgeLabel;html=1;align=center;verticalAlign=middle;resizable=0;points=[];" vertex="1" connectable="0" parent="Xv2vDg8jtysRzjBzoviw-4">
          <mxGeometry x="-0.2533" y="2" relative="1" as="geometry">
            <mxPoint as="offset" />
          </mxGeometry>
        </mxCell>
        <mxCell id="60571a20871a0731-5" value="" style="shape=mxgraph.bpmn.shape;html=1;verticalLabelPosition=bottom;labelBackgroundColor=#ffffff;verticalAlign=top;perimeter=ellipsePerimeter;outline=end;symbol=terminate;rounded=0;shadow=0;comic=0;strokeWidth=1;fontFamily=Verdana;fontSize=12;align=center;" parent="1c1d494c118603dd-3" vertex="1">
          <mxGeometry x="105" y="890" width="40" height="40" as="geometry" />
        </mxCell>
        <mxCell id="Xv2vDg8jtysRzjBzoviw-2" value="" style="rhombus;whiteSpace=wrap;html=1;" vertex="1" parent="1c1d494c118603dd-3">
          <mxGeometry x="115" y="150" width="20" height="20" as="geometry" />
        </mxCell>
        <mxCell id="60571a20871a0731-8" value="Enter Personal Info" style="rounded=1;whiteSpace=wrap;html=1;shadow=0;comic=0;labelBackgroundColor=none;strokeWidth=1;fontFamily=Verdana;fontSize=12;align=center;arcSize=50;" parent="1c1d494c118603dd-3" vertex="1">
          <mxGeometry x="50" y="100" width="150" height="30" as="geometry" />
        </mxCell>
        <mxCell id="60571a20871a0731-4" value="" style="ellipse;whiteSpace=wrap;html=1;rounded=0;shadow=0;comic=0;labelBackgroundColor=none;strokeWidth=1;fillColor=#000000;fontFamily=Verdana;fontSize=12;align=center;" parent="1c1d494c118603dd-3" vertex="1">
          <mxGeometry x="105" y="30" width="40" height="40" as="geometry" />
        </mxCell>
        <mxCell id="Xv2vDg8jtysRzjBzoviw-11" style="edgeStyle=orthogonalEdgeStyle;rounded=0;orthogonalLoop=1;jettySize=auto;html=1;exitX=0.5;exitY=1;exitDx=0;exitDy=0;entryX=0.5;entryY=0;entryDx=0;entryDy=0;" edge="1" parent="1c1d494c118603dd-3" source="1c1d494c118603dd-11" target="Xv2vDg8jtysRzjBzoviw-10">
          <mxGeometry relative="1" as="geometry" />
        </mxCell>
        <mxCell id="Xv2vDg8jtysRzjBzoviw-17" style="edgeStyle=orthogonalEdgeStyle;rounded=0;orthogonalLoop=1;jettySize=auto;html=1;exitX=0.5;exitY=1;exitDx=0;exitDy=0;entryX=0.5;entryY=0;entryDx=0;entryDy=0;" edge="1" parent="1c1d494c118603dd-3" source="1c1d494c118603dd-16" target="Xv2vDg8jtysRzjBzoviw-16">
          <mxGeometry relative="1" as="geometry" />
        </mxCell>
        <mxCell id="1c1d494c118603dd-16" value="Create Password" style="rounded=1;whiteSpace=wrap;html=1;shadow=0;comic=0;labelBackgroundColor=none;strokeWidth=1;fontFamily=Verdana;fontSize=12;align=center;arcSize=50;" parent="1c1d494c118603dd-3" vertex="1">
          <mxGeometry x="75" y="390" width="145" height="30" as="geometry" />
        </mxCell>
        <mxCell id="1c1d494c118603dd-11" value="Create Username" style="rounded=1;whiteSpace=wrap;html=1;shadow=0;comic=0;labelBackgroundColor=none;strokeWidth=1;fontFamily=Verdana;fontSize=12;align=center;arcSize=50;" parent="1c1d494c118603dd-3" vertex="1">
          <mxGeometry x="75" y="280" width="145" height="30" as="geometry" />
        </mxCell>
        <mxCell id="1c1d494c118603dd-27" style="edgeStyle=orthogonalEdgeStyle;rounded=0;html=1;labelBackgroundColor=none;startArrow=none;startFill=0;startSize=5;endArrow=classicThin;endFill=1;endSize=5;jettySize=auto;orthogonalLoop=1;strokeWidth=1;fontFamily=Verdana;fontSize=12" parent="1c1d494c118603dd-3" source="60571a20871a0731-4" target="60571a20871a0731-8" edge="1">
          <mxGeometry relative="1" as="geometry" />
        </mxCell>
        <mxCell id="Xv2vDg8jtysRzjBzoviw-1" style="edgeStyle=orthogonalEdgeStyle;rounded=0;orthogonalLoop=1;jettySize=auto;html=1;exitX=0.5;exitY=1;exitDx=0;exitDy=0;entryX=0.5;entryY=0;entryDx=0;entryDy=0;" edge="1" parent="1c1d494c118603dd-3" source="60571a20871a0731-8" target="Xv2vDg8jtysRzjBzoviw-2">
          <mxGeometry relative="1" as="geometry">
            <mxPoint x="125.28571428571433" y="150" as="targetPoint" />
          </mxGeometry>
        </mxCell>
        <mxCell id="Xv2vDg8jtysRzjBzoviw-8" style="edgeStyle=orthogonalEdgeStyle;rounded=0;orthogonalLoop=1;jettySize=auto;html=1;exitX=0.5;exitY=1;exitDx=0;exitDy=0;entryX=0.5;entryY=0;entryDx=0;entryDy=0;" edge="1" parent="1c1d494c118603dd-3" source="1c1d494c118603dd-5" target="1c1d494c118603dd-11">
          <mxGeometry relative="1" as="geometry" />
        </mxCell>
        <mxCell id="1c1d494c118603dd-5" value="Optional Direct Deposit Set-Up" style="rounded=1;whiteSpace=wrap;html=1;shadow=0;comic=0;labelBackgroundColor=none;strokeWidth=1;fontFamily=Verdana;fontSize=12;align=center;arcSize=50;" parent="1c1d494c118603dd-3" vertex="1">
          <mxGeometry x="27.5" y="226" width="195" height="30" as="geometry" />
        </mxCell>
        <mxCell id="Xv2vDg8jtysRzjBzoviw-12" style="edgeStyle=orthogonalEdgeStyle;rounded=0;orthogonalLoop=1;jettySize=auto;html=1;exitX=0;exitY=0.5;exitDx=0;exitDy=0;entryX=0;entryY=0.5;entryDx=0;entryDy=0;" edge="1" parent="1c1d494c118603dd-3" source="Xv2vDg8jtysRzjBzoviw-10" target="1c1d494c118603dd-11">
          <mxGeometry relative="1" as="geometry">
            <Array as="points">
              <mxPoint x="60" y="340" />
              <mxPoint x="60" y="295" />
            </Array>
          </mxGeometry>
        </mxCell>
        <mxCell id="Xv2vDg8jtysRzjBzoviw-13" value="Invalid Username" style="edgeLabel;html=1;align=center;verticalAlign=middle;resizable=0;points=[];" vertex="1" connectable="0" parent="Xv2vDg8jtysRzjBzoviw-12">
          <mxGeometry x="-0.2113" y="-1" relative="1" as="geometry">
            <mxPoint as="offset" />
          </mxGeometry>
        </mxCell>
        <mxCell id="Xv2vDg8jtysRzjBzoviw-14" style="edgeStyle=orthogonalEdgeStyle;rounded=0;orthogonalLoop=1;jettySize=auto;html=1;exitX=0.5;exitY=1;exitDx=0;exitDy=0;entryX=0.5;entryY=0;entryDx=0;entryDy=0;" edge="1" parent="1c1d494c118603dd-3" source="Xv2vDg8jtysRzjBzoviw-10" target="1c1d494c118603dd-16">
          <mxGeometry relative="1" as="geometry" />
        </mxCell>
        <mxCell id="Xv2vDg8jtysRzjBzoviw-15" value="Invalid Password" style="edgeLabel;html=1;align=center;verticalAlign=middle;resizable=0;points=[];" vertex="1" connectable="0" parent="Xv2vDg8jtysRzjBzoviw-14">
          <mxGeometry x="-0.1583" y="1" relative="1" as="geometry">
            <mxPoint as="offset" />
          </mxGeometry>
        </mxCell>
        <mxCell id="Xv2vDg8jtysRzjBzoviw-10" value="" style="rhombus;whiteSpace=wrap;html=1;" vertex="1" parent="1c1d494c118603dd-3">
          <mxGeometry x="137.5" y="330" width="20" height="20" as="geometry" />
        </mxCell>
        <mxCell id="Xv2vDg8jtysRzjBzoviw-18" style="edgeStyle=orthogonalEdgeStyle;rounded=0;orthogonalLoop=1;jettySize=auto;html=1;exitX=0;exitY=0.5;exitDx=0;exitDy=0;entryX=0;entryY=0.5;entryDx=0;entryDy=0;" edge="1" parent="1c1d494c118603dd-3" source="Xv2vDg8jtysRzjBzoviw-16" target="1c1d494c118603dd-16">
          <mxGeometry relative="1" as="geometry">
            <Array as="points">
              <mxPoint x="30" y="460" />
              <mxPoint x="30" y="405" />
            </Array>
          </mxGeometry>
        </mxCell>
        <mxCell id="Xv2vDg8jtysRzjBzoviw-19" value="Invalid Password" style="edgeLabel;html=1;align=center;verticalAlign=middle;resizable=0;points=[];" vertex="1" connectable="0" parent="Xv2vDg8jtysRzjBzoviw-18">
          <mxGeometry x="-0.5704" y="1" relative="1" as="geometry">
            <mxPoint as="offset" />
          </mxGeometry>
        </mxCell>
        <mxCell id="Xv2vDg8jtysRzjBzoviw-16" value="" style="rhombus;whiteSpace=wrap;html=1;" vertex="1" parent="1c1d494c118603dd-3">
          <mxGeometry x="137.5" y="450" width="20" height="20" as="geometry" />
        </mxCell>
        <mxCell id="Xv2vDg8jtysRzjBzoviw-28" style="edgeStyle=orthogonalEdgeStyle;rounded=0;orthogonalLoop=1;jettySize=auto;html=1;exitX=0.5;exitY=1;exitDx=0;exitDy=0;entryX=1;entryY=0.5;entryDx=0;entryDy=0;" edge="1" parent="1c1d494c118603dd-1" source="1c1d494c118603dd-19" target="60571a20871a0731-5">
          <mxGeometry relative="1" as="geometry" />
        </mxCell>
        <mxCell id="Xv2vDg8jtysRzjBzoviw-20" style="edgeStyle=orthogonalEdgeStyle;rounded=0;orthogonalLoop=1;jettySize=auto;html=1;exitX=0.5;exitY=1;exitDx=0;exitDy=0;entryX=0.5;entryY=0;entryDx=0;entryDy=0;" edge="1" parent="1c1d494c118603dd-1" source="Xv2vDg8jtysRzjBzoviw-16" target="1c1d494c118603dd-18">
          <mxGeometry relative="1" as="geometry" />
        </mxCell>
        <mxCell id="Xv2vDg8jtysRzjBzoviw-21" value="Valid Password" style="edgeLabel;html=1;align=center;verticalAlign=middle;resizable=0;points=[];" vertex="1" connectable="0" parent="Xv2vDg8jtysRzjBzoviw-20">
          <mxGeometry x="-0.3333" y="-2" relative="1" as="geometry">
            <mxPoint as="offset" />
          </mxGeometry>
        </mxCell>
        <mxCell id="Xv2vDg8jtysRzjBzoviw-24" style="edgeStyle=orthogonalEdgeStyle;rounded=0;orthogonalLoop=1;jettySize=auto;html=1;exitX=0;exitY=0.5;exitDx=0;exitDy=0;entryX=0.5;entryY=0;entryDx=0;entryDy=0;" edge="1" parent="1c1d494c118603dd-1" source="Xv2vDg8jtysRzjBzoviw-22" target="60571a20871a0731-5">
          <mxGeometry relative="1" as="geometry" />
        </mxCell>
        <mxCell id="Xv2vDg8jtysRzjBzoviw-27" value="Rejected" style="edgeLabel;html=1;align=center;verticalAlign=middle;resizable=0;points=[];" vertex="1" connectable="0" parent="Xv2vDg8jtysRzjBzoviw-24">
          <mxGeometry x="-0.7912" y="-1" relative="1" as="geometry">
            <mxPoint as="offset" />
          </mxGeometry>
        </mxCell>
        <mxCell id="1c1d494c118603dd-4" value="Manager" style="swimlane;html=1;startSize=20;" parent="1c1d494c118603dd-1" vertex="1">
          <mxGeometry x="230" y="20" width="250" height="970" as="geometry" />
        </mxCell>
        <mxCell id="Xv2vDg8jtysRzjBzoviw-23" style="edgeStyle=orthogonalEdgeStyle;rounded=0;orthogonalLoop=1;jettySize=auto;html=1;exitX=0.5;exitY=1;exitDx=0;exitDy=0;entryX=0.5;entryY=0;entryDx=0;entryDy=0;" edge="1" parent="1c1d494c118603dd-4" source="1c1d494c118603dd-18" target="Xv2vDg8jtysRzjBzoviw-22">
          <mxGeometry relative="1" as="geometry" />
        </mxCell>
        <mxCell id="1c1d494c118603dd-19" value="Assign Employee Number" style="rounded=1;whiteSpace=wrap;html=1;shadow=0;comic=0;labelBackgroundColor=none;strokeWidth=1;fontFamily=Verdana;fontSize=12;align=center;arcSize=50;" parent="1c1d494c118603dd-4" vertex="1">
          <mxGeometry x="30" y="670" width="190" height="30" as="geometry" />
        </mxCell>
        <mxCell id="1c1d494c118603dd-18" value="Approve Account Creation" style="rounded=1;whiteSpace=wrap;html=1;shadow=0;comic=0;labelBackgroundColor=none;strokeWidth=1;fontFamily=Verdana;fontSize=12;align=center;arcSize=50;" parent="1c1d494c118603dd-4" vertex="1">
          <mxGeometry x="35" y="510" width="180" height="30" as="geometry" />
        </mxCell>
        <mxCell id="Xv2vDg8jtysRzjBzoviw-25" style="edgeStyle=orthogonalEdgeStyle;rounded=0;orthogonalLoop=1;jettySize=auto;html=1;exitX=0.5;exitY=1;exitDx=0;exitDy=0;entryX=0.5;entryY=0;entryDx=0;entryDy=0;" edge="1" parent="1c1d494c118603dd-4" source="Xv2vDg8jtysRzjBzoviw-22" target="1c1d494c118603dd-19">
          <mxGeometry relative="1" as="geometry" />
        </mxCell>
        <mxCell id="Xv2vDg8jtysRzjBzoviw-26" value="Approved" style="edgeLabel;html=1;align=center;verticalAlign=middle;resizable=0;points=[];" vertex="1" connectable="0" parent="Xv2vDg8jtysRzjBzoviw-25">
          <mxGeometry x="-0.265" y="-2" relative="1" as="geometry">
            <mxPoint as="offset" />
          </mxGeometry>
        </mxCell>
        <mxCell id="Xv2vDg8jtysRzjBzoviw-22" value="" style="rhombus;whiteSpace=wrap;html=1;" vertex="1" parent="1c1d494c118603dd-4">
          <mxGeometry x="115" y="580" width="20" height="20" as="geometry" />
        </mxCell>
      </root>
    </mxGraphModel>
  </diagram>
</mxfile>
